<svg width="177" height="32" viewBox="0 0 177 32" fill="none" xmlns="http://www.w3.org/2000/svg">
<path d="M0.375 6C0.375 3.79086 2.16586 2 4.375 2H9.375C11.5841 2 13.375 3.79086 13.375 6V13C13.375 14.1046 12.4796 15 11.375 15H4.375C2.16586 15 0.375 13.2091 0.375 11V6Z" fill="#D70BEA"/>
<rect x="0.375" y="16.5" width="13" height="13" rx="2" fill="#D70BEA"/>
<rect x="14.875" y="1.75" width="13.5" height="13.5" rx="6.75" fill="#D70BEA"/>
<rect x="14.875" y="16.25" width="13.5" height="13.5" rx="6.75" fill="#D70BEA"/>
<path d="M47.915 29.312C53.414 29.312 56.69 25.49 56.69 18.977C56.69 12.971 53.453 9.422 47.954 9.422C44.522 9.422 42.065 10.943 41.324 13.478H41.246C41.285 12.542 41.363 10.943 41.363 10.046V1.973L35.435 1.973V29H41.363C41.285 28.064 41.207 26.504 41.168 25.373H41.207C41.909 27.83 44.405 29.312 47.915 29.312ZM46.394 24.788C43.235 24.788 41.363 23.072 41.363 20.147V19.25C41.363 15.935 43.235 13.946 46.355 13.946C49.124 13.946 50.762 15.896 50.762 19.172C50.762 22.721 49.124 24.788 46.394 24.788ZM66.2941 29.312C69.8041 29.312 71.9881 27.83 72.5731 25.1H72.6121C72.6121 26.27 72.4561 28.025 72.3391 29L78.2671 29V17.3C78.2671 12.152 74.6791 9.422 68.5561 9.422C62.7061 9.422 59.2741 11.723 59.2741 15.623C59.2741 16.013 59.3131 16.442 59.3521 16.754H64.8121C64.7731 16.364 64.7731 16.052 64.7731 15.935C64.7731 14.375 66.0601 13.439 68.2831 13.439C71.0131 13.439 72.3391 14.375 72.3391 16.715V18.002H66.0601C60.9511 18.002 58.6891 20.303 58.6891 23.462C58.6891 27.362 61.8091 29.312 66.2941 29.312ZM67.4641 25.295C65.3191 25.295 64.0321 24.515 64.0321 23.033C64.0321 21.941 65.0071 21.2 66.6061 21.2H72.3391V21.59C72.3391 23.93 70.5451 25.295 67.4641 25.295ZM90.333 29.312C96.924 29.312 100.395 26.933 100.395 22.877C100.395 21.2 99.498 19.757 98.25 19.055C96.807 18.236 95.13 18.002 92.751 17.768C90.684 17.573 88.968 17.417 87.993 17.183C86.901 16.91 86.589 16.286 86.589 15.467C86.589 14.141 87.759 13.244 90.411 13.244C93.336 13.244 94.272 14.297 94.311 16.325H99.537C99.537 11.84 96.651 9.422 90.333 9.422C84.99 9.422 80.7 11.723 80.7 15.896C80.7 17.495 81.441 18.899 82.533 19.679C83.703 20.498 85.848 20.927 88.617 21.161C90.528 21.317 92.088 21.473 93.102 21.707C94.116 21.941 94.467 22.487 94.467 23.189C94.467 24.593 93.375 25.49 90.294 25.49C86.901 25.49 86.004 24.32 86.004 22.526H80.7C80.7 26.426 83.547 29.312 90.333 29.312ZM111.919 29.312C118.51 29.312 121.981 26.933 121.981 22.877C121.981 21.2 121.084 19.757 119.836 19.055C118.393 18.236 116.716 18.002 114.337 17.768C112.27 17.573 110.554 17.417 109.579 17.183C108.487 16.91 108.175 16.286 108.175 15.467C108.175 14.141 109.345 13.244 111.997 13.244C114.922 13.244 115.858 14.297 115.897 16.325H121.123C121.123 11.84 118.237 9.422 111.919 9.422C106.576 9.422 102.286 11.723 102.286 15.896C102.286 17.495 103.027 18.899 104.119 19.679C105.289 20.498 107.434 20.927 110.203 21.161C112.114 21.317 113.674 21.473 114.688 21.707C115.702 21.941 116.053 22.487 116.053 23.189C116.053 24.593 114.961 25.49 111.88 25.49C108.487 25.49 107.59 24.32 107.59 22.526L102.286 22.526C102.286 26.426 105.133 29.312 111.919 29.312ZM123.988 7.706L129.916 7.706V2.987L123.988 2.987V7.706ZM123.988 29H129.916V9.734L123.988 9.734V29ZM151.574 18.821C151.574 12.503 147.791 9.422 142.409 9.422C135.896 9.422 131.918 13.205 131.918 19.562C131.918 25.685 135.896 29.312 142.292 29.312C147.791 29.312 151.457 26.738 151.574 22.331H146.348C146.192 24.203 144.71 25.022 142.409 25.022C139.757 25.022 138.158 23.657 137.885 20.498H151.574V18.821ZM146.348 17.339H138.041C138.509 14.804 139.913 13.712 142.409 13.712C144.866 13.712 146.348 14.843 146.348 17.027V17.339ZM162.475 29.312C165.985 29.312 168.169 27.596 168.91 24.866H168.988C168.871 26.933 168.793 28.61 168.754 29H174.682V1.973L168.754 1.973V12.581H168.715C167.857 10.592 165.829 9.422 162.709 9.422C157.093 9.422 153.427 13.322 153.427 19.211C153.427 25.256 156.898 29.312 162.475 29.312ZM163.84 24.788C161.11 24.788 159.316 22.526 159.316 19.25C159.316 16.052 161.149 13.946 163.918 13.946C166.804 13.946 168.754 15.818 168.754 18.587V19.523C168.754 22.682 166.804 24.788 163.84 24.788Z" fill="black"/>
</svg>
